<?xml version="1.0" encoding="utf-8" standalone="no"?>
<!DOCTYPE svg PUBLIC "-//W3C//DTD SVG 1.1//EN"
  "http://www.w3.org/Graphics/SVG/1.1/DTD/svg11.dtd">
<!-- Created with matplotlib (https://matplotlib.org/) -->
<svg height="555.12pt" version="1.1" viewBox="0 0 650.88 555.12" width="650.88pt" xmlns="http://www.w3.org/2000/svg" xmlns:xlink="http://www.w3.org/1999/xlink">
 <metadata>
  <rdf:RDF xmlns:cc="http://creativecommons.org/ns#" xmlns:dc="http://purl.org/dc/elements/1.1/" xmlns:rdf="http://www.w3.org/1999/02/22-rdf-syntax-ns#">
   <cc:Work>
    <dc:type rdf:resource="http://purl.org/dc/dcmitype/StillImage"/>
    <dc:date>2021-04-01T18:08:54.809732</dc:date>
    <dc:format>image/svg+xml</dc:format>
    <dc:creator>
     <cc:Agent>
      <dc:title>Matplotlib v3.3.3, https://matplotlib.org/</dc:title>
     </cc:Agent>
    </dc:creator>
   </cc:Work>
  </rdf:RDF>
 </metadata>
 <defs>
  <style type="text/css">*{stroke-linecap:butt;stroke-linejoin:round;}</style>
 </defs>
 <g id="figure_1">
  <g id="patch_1">
   <path d="M 0 555.12 
L 650.88 555.12 
L 650.88 0 
L 0 0 
z
" style="fill:#ffffff;"/>
  </g>
  <g id="axes_1">
   <g id="patch_2">
    <path d="M 81.36 494.0568 
L 585.792 494.0568 
L 585.792 66.6144 
L 81.36 66.6144 
z
" style="fill:#ffffff;"/>
   </g>
   <g id="matplotlib.axis_1">
    <g id="xtick_1">
     <g id="line2d_1">
      <defs>
       <path d="M 0 0 
L 0 3.5 
" id="m005d57c0e1" style="stroke:#000000;stroke-width:0.8;"/>
      </defs>
      <g>
       <use style="stroke:#000000;stroke-width:0.8;" x="104.288727" xlink:href="#m005d57c0e1" y="494.0568"/>
      </g>
     </g>
     <g id="text_1">
      <!-- −1.00 -->
      <g transform="translate(88.966071 508.655237)scale(0.1 -0.1)">
       <defs>
        <path d="M 10.59375 35.5 
L 73.1875 35.5 
L 73.1875 27.203125 
L 10.59375 27.203125 
z
" id="DejaVuSans-8722"/>
        <path d="M 12.40625 8.296875 
L 28.515625 8.296875 
L 28.515625 63.921875 
L 10.984375 60.40625 
L 10.984375 69.390625 
L 28.421875 72.90625 
L 38.28125 72.90625 
L 38.28125 8.296875 
L 54.390625 8.296875 
L 54.390625 0 
L 12.40625 0 
z
" id="DejaVuSans-49"/>
        <path d="M 10.6875 12.40625 
L 21 12.40625 
L 21 0 
L 10.6875 0 
z
" id="DejaVuSans-46"/>
        <path d="M 31.78125 66.40625 
Q 24.171875 66.40625 20.328125 58.90625 
Q 16.5 51.421875 16.5 36.375 
Q 16.5 21.390625 20.328125 13.890625 
Q 24.171875 6.390625 31.78125 6.390625 
Q 39.453125 6.390625 43.28125 13.890625 
Q 47.125 21.390625 47.125 36.375 
Q 47.125 51.421875 43.28125 58.90625 
Q 39.453125 66.40625 31.78125 66.40625 
z
M 31.78125 74.21875 
Q 44.046875 74.21875 50.515625 64.515625 
Q 56.984375 54.828125 56.984375 36.375 
Q 56.984375 17.96875 50.515625 8.265625 
Q 44.046875 -1.421875 31.78125 -1.421875 
Q 19.53125 -1.421875 13.0625 8.265625 
Q 6.59375 17.96875 6.59375 36.375 
Q 6.59375 54.828125 13.0625 64.515625 
Q 19.53125 74.21875 31.78125 74.21875 
z
" id="DejaVuSans-48"/>
       </defs>
       <use xlink:href="#DejaVuSans-8722"/>
       <use x="83.789062" xlink:href="#DejaVuSans-49"/>
       <use x="147.412109" xlink:href="#DejaVuSans-46"/>
       <use x="179.199219" xlink:href="#DejaVuSans-48"/>
       <use x="242.822266" xlink:href="#DejaVuSans-48"/>
      </g>
     </g>
    </g>
    <g id="xtick_2">
     <g id="line2d_2">
      <g>
       <use style="stroke:#000000;stroke-width:0.8;" x="161.610545" xlink:href="#m005d57c0e1" y="494.0568"/>
      </g>
     </g>
     <g id="text_2">
      <!-- −0.75 -->
      <g transform="translate(146.287889 508.655237)scale(0.1 -0.1)">
       <defs>
        <path d="M 8.203125 72.90625 
L 55.078125 72.90625 
L 55.078125 68.703125 
L 28.609375 0 
L 18.3125 0 
L 43.21875 64.59375 
L 8.203125 64.59375 
z
" id="DejaVuSans-55"/>
        <path d="M 10.796875 72.90625 
L 49.515625 72.90625 
L 49.515625 64.59375 
L 19.828125 64.59375 
L 19.828125 46.734375 
Q 21.96875 47.46875 24.109375 47.828125 
Q 26.265625 48.1875 28.421875 48.1875 
Q 40.625 48.1875 47.75 41.5 
Q 54.890625 34.8125 54.890625 23.390625 
Q 54.890625 11.625 47.5625 5.09375 
Q 40.234375 -1.421875 26.90625 -1.421875 
Q 22.3125 -1.421875 17.546875 -0.640625 
Q 12.796875 0.140625 7.71875 1.703125 
L 7.71875 11.625 
Q 12.109375 9.234375 16.796875 8.0625 
Q 21.484375 6.890625 26.703125 6.890625 
Q 35.15625 6.890625 40.078125 11.328125 
Q 45.015625 15.765625 45.015625 23.390625 
Q 45.015625 31 40.078125 35.4375 
Q 35.15625 39.890625 26.703125 39.890625 
Q 22.75 39.890625 18.8125 39.015625 
Q 14.890625 38.140625 10.796875 36.28125 
z
" id="DejaVuSans-53"/>
       </defs>
       <use xlink:href="#DejaVuSans-8722"/>
       <use x="83.789062" xlink:href="#DejaVuSans-48"/>
       <use x="147.412109" xlink:href="#DejaVuSans-46"/>
       <use x="179.199219" xlink:href="#DejaVuSans-55"/>
       <use x="242.822266" xlink:href="#DejaVuSans-53"/>
      </g>
     </g>
    </g>
    <g id="xtick_3">
     <g id="line2d_3">
      <g>
       <use style="stroke:#000000;stroke-width:0.8;" x="218.932364" xlink:href="#m005d57c0e1" y="494.0568"/>
      </g>
     </g>
     <g id="text_3">
      <!-- −0.50 -->
      <g transform="translate(203.609707 508.655237)scale(0.1 -0.1)">
       <use xlink:href="#DejaVuSans-8722"/>
       <use x="83.789062" xlink:href="#DejaVuSans-48"/>
       <use x="147.412109" xlink:href="#DejaVuSans-46"/>
       <use x="179.199219" xlink:href="#DejaVuSans-53"/>
       <use x="242.822266" xlink:href="#DejaVuSans-48"/>
      </g>
     </g>
    </g>
    <g id="xtick_4">
     <g id="line2d_4">
      <g>
       <use style="stroke:#000000;stroke-width:0.8;" x="276.254182" xlink:href="#m005d57c0e1" y="494.0568"/>
      </g>
     </g>
     <g id="text_4">
      <!-- −0.25 -->
      <g transform="translate(260.931526 508.655237)scale(0.1 -0.1)">
       <defs>
        <path d="M 19.1875 8.296875 
L 53.609375 8.296875 
L 53.609375 0 
L 7.328125 0 
L 7.328125 8.296875 
Q 12.9375 14.109375 22.625 23.890625 
Q 32.328125 33.6875 34.8125 36.53125 
Q 39.546875 41.84375 41.421875 45.53125 
Q 43.3125 49.21875 43.3125 52.78125 
Q 43.3125 58.59375 39.234375 62.25 
Q 35.15625 65.921875 28.609375 65.921875 
Q 23.96875 65.921875 18.8125 64.3125 
Q 13.671875 62.703125 7.8125 59.421875 
L 7.8125 69.390625 
Q 13.765625 71.78125 18.9375 73 
Q 24.125 74.21875 28.421875 74.21875 
Q 39.75 74.21875 46.484375 68.546875 
Q 53.21875 62.890625 53.21875 53.421875 
Q 53.21875 48.921875 51.53125 44.890625 
Q 49.859375 40.875 45.40625 35.40625 
Q 44.1875 33.984375 37.640625 27.21875 
Q 31.109375 20.453125 19.1875 8.296875 
z
" id="DejaVuSans-50"/>
       </defs>
       <use xlink:href="#DejaVuSans-8722"/>
       <use x="83.789062" xlink:href="#DejaVuSans-48"/>
       <use x="147.412109" xlink:href="#DejaVuSans-46"/>
       <use x="179.199219" xlink:href="#DejaVuSans-50"/>
       <use x="242.822266" xlink:href="#DejaVuSans-53"/>
      </g>
     </g>
    </g>
    <g id="xtick_5">
     <g id="line2d_5">
      <g>
       <use style="stroke:#000000;stroke-width:0.8;" x="333.576" xlink:href="#m005d57c0e1" y="494.0568"/>
      </g>
     </g>
     <g id="text_5">
      <!-- 0.00 -->
      <g transform="translate(322.443187 508.655237)scale(0.1 -0.1)">
       <use xlink:href="#DejaVuSans-48"/>
       <use x="63.623047" xlink:href="#DejaVuSans-46"/>
       <use x="95.410156" xlink:href="#DejaVuSans-48"/>
       <use x="159.033203" xlink:href="#DejaVuSans-48"/>
      </g>
     </g>
    </g>
    <g id="xtick_6">
     <g id="line2d_6">
      <g>
       <use style="stroke:#000000;stroke-width:0.8;" x="390.897818" xlink:href="#m005d57c0e1" y="494.0568"/>
      </g>
     </g>
     <g id="text_6">
      <!-- 0.25 -->
      <g transform="translate(379.765006 508.655237)scale(0.1 -0.1)">
       <use xlink:href="#DejaVuSans-48"/>
       <use x="63.623047" xlink:href="#DejaVuSans-46"/>
       <use x="95.410156" xlink:href="#DejaVuSans-50"/>
       <use x="159.033203" xlink:href="#DejaVuSans-53"/>
      </g>
     </g>
    </g>
    <g id="xtick_7">
     <g id="line2d_7">
      <g>
       <use style="stroke:#000000;stroke-width:0.8;" x="448.219636" xlink:href="#m005d57c0e1" y="494.0568"/>
      </g>
     </g>
     <g id="text_7">
      <!-- 0.50 -->
      <g transform="translate(437.086824 508.655237)scale(0.1 -0.1)">
       <use xlink:href="#DejaVuSans-48"/>
       <use x="63.623047" xlink:href="#DejaVuSans-46"/>
       <use x="95.410156" xlink:href="#DejaVuSans-53"/>
       <use x="159.033203" xlink:href="#DejaVuSans-48"/>
      </g>
     </g>
    </g>
    <g id="xtick_8">
     <g id="line2d_8">
      <g>
       <use style="stroke:#000000;stroke-width:0.8;" x="505.541455" xlink:href="#m005d57c0e1" y="494.0568"/>
      </g>
     </g>
     <g id="text_8">
      <!-- 0.75 -->
      <g transform="translate(494.408642 508.655237)scale(0.1 -0.1)">
       <use xlink:href="#DejaVuSans-48"/>
       <use x="63.623047" xlink:href="#DejaVuSans-46"/>
       <use x="95.410156" xlink:href="#DejaVuSans-55"/>
       <use x="159.033203" xlink:href="#DejaVuSans-53"/>
      </g>
     </g>
    </g>
    <g id="xtick_9">
     <g id="line2d_9">
      <g>
       <use style="stroke:#000000;stroke-width:0.8;" x="562.863273" xlink:href="#m005d57c0e1" y="494.0568"/>
      </g>
     </g>
     <g id="text_9">
      <!-- 1.00 -->
      <g transform="translate(551.73046 508.655237)scale(0.1 -0.1)">
       <use xlink:href="#DejaVuSans-49"/>
       <use x="63.623047" xlink:href="#DejaVuSans-46"/>
       <use x="95.410156" xlink:href="#DejaVuSans-48"/>
       <use x="159.033203" xlink:href="#DejaVuSans-48"/>
      </g>
     </g>
    </g>
   </g>
   <g id="matplotlib.axis_2">
    <g id="ytick_1">
     <g id="line2d_10">
      <defs>
       <path d="M 0 0 
L -3.5 0 
" id="m959b736567" style="stroke:#000000;stroke-width:0.8;"/>
      </defs>
      <g>
       <use style="stroke:#000000;stroke-width:0.8;" x="81.36" xlink:href="#m959b736567" y="473.459557"/>
      </g>
     </g>
     <g id="text_10">
      <!-- −0.04 -->
      <g transform="translate(43.714687 477.258776)scale(0.1 -0.1)">
       <defs>
        <path d="M 37.796875 64.3125 
L 12.890625 25.390625 
L 37.796875 25.390625 
z
M 35.203125 72.90625 
L 47.609375 72.90625 
L 47.609375 25.390625 
L 58.015625 25.390625 
L 58.015625 17.1875 
L 47.609375 17.1875 
L 47.609375 0 
L 37.796875 0 
L 37.796875 17.1875 
L 4.890625 17.1875 
L 4.890625 26.703125 
z
" id="DejaVuSans-52"/>
       </defs>
       <use xlink:href="#DejaVuSans-8722"/>
       <use x="83.789062" xlink:href="#DejaVuSans-48"/>
       <use x="147.412109" xlink:href="#DejaVuSans-46"/>
       <use x="179.199219" xlink:href="#DejaVuSans-48"/>
       <use x="242.822266" xlink:href="#DejaVuSans-52"/>
      </g>
     </g>
    </g>
    <g id="ytick_2">
     <g id="line2d_11">
      <g>
       <use style="stroke:#000000;stroke-width:0.8;" x="81.36" xlink:href="#m959b736567" y="425.178568"/>
      </g>
     </g>
     <g id="text_11">
      <!-- −0.03 -->
      <g transform="translate(43.714687 428.977787)scale(0.1 -0.1)">
       <defs>
        <path d="M 40.578125 39.3125 
Q 47.65625 37.796875 51.625 33 
Q 55.609375 28.21875 55.609375 21.1875 
Q 55.609375 10.40625 48.1875 4.484375 
Q 40.765625 -1.421875 27.09375 -1.421875 
Q 22.515625 -1.421875 17.65625 -0.515625 
Q 12.796875 0.390625 7.625 2.203125 
L 7.625 11.71875 
Q 11.71875 9.328125 16.59375 8.109375 
Q 21.484375 6.890625 26.8125 6.890625 
Q 36.078125 6.890625 40.9375 10.546875 
Q 45.796875 14.203125 45.796875 21.1875 
Q 45.796875 27.640625 41.28125 31.265625 
Q 36.765625 34.90625 28.71875 34.90625 
L 20.21875 34.90625 
L 20.21875 43.015625 
L 29.109375 43.015625 
Q 36.375 43.015625 40.234375 45.921875 
Q 44.09375 48.828125 44.09375 54.296875 
Q 44.09375 59.90625 40.109375 62.90625 
Q 36.140625 65.921875 28.71875 65.921875 
Q 24.65625 65.921875 20.015625 65.03125 
Q 15.375 64.15625 9.8125 62.3125 
L 9.8125 71.09375 
Q 15.4375 72.65625 20.34375 73.4375 
Q 25.25 74.21875 29.59375 74.21875 
Q 40.828125 74.21875 47.359375 69.109375 
Q 53.90625 64.015625 53.90625 55.328125 
Q 53.90625 49.265625 50.4375 45.09375 
Q 46.96875 40.921875 40.578125 39.3125 
z
" id="DejaVuSans-51"/>
       </defs>
       <use xlink:href="#DejaVuSans-8722"/>
       <use x="83.789062" xlink:href="#DejaVuSans-48"/>
       <use x="147.412109" xlink:href="#DejaVuSans-46"/>
       <use x="179.199219" xlink:href="#DejaVuSans-48"/>
       <use x="242.822266" xlink:href="#DejaVuSans-51"/>
      </g>
     </g>
    </g>
    <g id="ytick_3">
     <g id="line2d_12">
      <g>
       <use style="stroke:#000000;stroke-width:0.8;" x="81.36" xlink:href="#m959b736567" y="376.897579"/>
      </g>
     </g>
     <g id="text_12">
      <!-- −0.02 -->
      <g transform="translate(43.714687 380.696797)scale(0.1 -0.1)">
       <use xlink:href="#DejaVuSans-8722"/>
       <use x="83.789062" xlink:href="#DejaVuSans-48"/>
       <use x="147.412109" xlink:href="#DejaVuSans-46"/>
       <use x="179.199219" xlink:href="#DejaVuSans-48"/>
       <use x="242.822266" xlink:href="#DejaVuSans-50"/>
      </g>
     </g>
    </g>
    <g id="ytick_4">
     <g id="line2d_13">
      <g>
       <use style="stroke:#000000;stroke-width:0.8;" x="81.36" xlink:href="#m959b736567" y="328.616589"/>
      </g>
     </g>
     <g id="text_13">
      <!-- −0.01 -->
      <g transform="translate(43.714687 332.415808)scale(0.1 -0.1)">
       <use xlink:href="#DejaVuSans-8722"/>
       <use x="83.789062" xlink:href="#DejaVuSans-48"/>
       <use x="147.412109" xlink:href="#DejaVuSans-46"/>
       <use x="179.199219" xlink:href="#DejaVuSans-48"/>
       <use x="242.822266" xlink:href="#DejaVuSans-49"/>
      </g>
     </g>
    </g>
    <g id="ytick_5">
     <g id="line2d_14">
      <g>
       <use style="stroke:#000000;stroke-width:0.8;" x="81.36" xlink:href="#m959b736567" y="280.3356"/>
      </g>
     </g>
     <g id="text_14">
      <!-- 0.00 -->
      <g transform="translate(52.094375 284.134819)scale(0.1 -0.1)">
       <use xlink:href="#DejaVuSans-48"/>
       <use x="63.623047" xlink:href="#DejaVuSans-46"/>
       <use x="95.410156" xlink:href="#DejaVuSans-48"/>
       <use x="159.033203" xlink:href="#DejaVuSans-48"/>
      </g>
     </g>
    </g>
    <g id="ytick_6">
     <g id="line2d_15">
      <g>
       <use style="stroke:#000000;stroke-width:0.8;" x="81.36" xlink:href="#m959b736567" y="232.054611"/>
      </g>
     </g>
     <g id="text_15">
      <!-- 0.01 -->
      <g transform="translate(52.094375 235.853829)scale(0.1 -0.1)">
       <use xlink:href="#DejaVuSans-48"/>
       <use x="63.623047" xlink:href="#DejaVuSans-46"/>
       <use x="95.410156" xlink:href="#DejaVuSans-48"/>
       <use x="159.033203" xlink:href="#DejaVuSans-49"/>
      </g>
     </g>
    </g>
    <g id="ytick_7">
     <g id="line2d_16">
      <g>
       <use style="stroke:#000000;stroke-width:0.8;" x="81.36" xlink:href="#m959b736567" y="183.773621"/>
      </g>
     </g>
     <g id="text_16">
      <!-- 0.02 -->
      <g transform="translate(52.094375 187.57284)scale(0.1 -0.1)">
       <use xlink:href="#DejaVuSans-48"/>
       <use x="63.623047" xlink:href="#DejaVuSans-46"/>
       <use x="95.410156" xlink:href="#DejaVuSans-48"/>
       <use x="159.033203" xlink:href="#DejaVuSans-50"/>
      </g>
     </g>
    </g>
    <g id="ytick_8">
     <g id="line2d_17">
      <g>
       <use style="stroke:#000000;stroke-width:0.8;" x="81.36" xlink:href="#m959b736567" y="135.492632"/>
      </g>
     </g>
     <g id="text_17">
      <!-- 0.03 -->
      <g transform="translate(52.094375 139.291851)scale(0.1 -0.1)">
       <use xlink:href="#DejaVuSans-48"/>
       <use x="63.623047" xlink:href="#DejaVuSans-46"/>
       <use x="95.410156" xlink:href="#DejaVuSans-48"/>
       <use x="159.033203" xlink:href="#DejaVuSans-51"/>
      </g>
     </g>
    </g>
    <g id="ytick_9">
     <g id="line2d_18">
      <g>
       <use style="stroke:#000000;stroke-width:0.8;" x="81.36" xlink:href="#m959b736567" y="87.211643"/>
      </g>
     </g>
     <g id="text_18">
      <!-- 0.04 -->
      <g transform="translate(52.094375 91.010861)scale(0.1 -0.1)">
       <use xlink:href="#DejaVuSans-48"/>
       <use x="63.623047" xlink:href="#DejaVuSans-46"/>
       <use x="95.410156" xlink:href="#DejaVuSans-48"/>
       <use x="159.033203" xlink:href="#DejaVuSans-52"/>
      </g>
     </g>
    </g>
   </g>
   <g id="line2d_19">
    <defs>
     <path d="M -3 0 
L 3 0 
M 0 3 
L 0 -3 
" id="m573691393f" style="stroke:#1f77b4;"/>
    </defs>
    <g clip-path="url(#pb69238d1cd)">
     <use style="fill:#1f77b4;stroke:#1f77b4;" x="104.288727" xlink:href="#m573691393f" y="280.3356"/>
     <use style="fill:#1f77b4;stroke:#1f77b4;" x="113.842364" xlink:href="#m573691393f" y="353.530652"/>
     <use style="fill:#1f77b4;stroke:#1f77b4;" x="123.396" xlink:href="#m573691393f" y="397.163052"/>
     <use style="fill:#1f77b4;stroke:#1f77b4;" x="132.949636" xlink:href="#m573691393f" y="426.636145"/>
     <use style="fill:#1f77b4;stroke:#1f77b4;" x="142.503273" xlink:href="#m573691393f" y="446.953227"/>
     <use style="fill:#1f77b4;stroke:#1f77b4;" x="152.056909" xlink:href="#m573691393f" y="460.628751"/>
     <use style="fill:#1f77b4;stroke:#1f77b4;" x="161.610545" xlink:href="#m573691393f" y="469.174642"/>
     <use style="fill:#1f77b4;stroke:#1f77b4;" x="171.164182" xlink:href="#m573691393f" y="473.600158"/>
     <use style="fill:#1f77b4;stroke:#1f77b4;" x="180.717818" xlink:href="#m573691393f" y="474.6276"/>
     <use style="fill:#1f77b4;stroke:#1f77b4;" x="190.271455" xlink:href="#m573691393f" y="472.800561"/>
     <use style="fill:#1f77b4;stroke:#1f77b4;" x="199.825091" xlink:href="#m573691393f" y="468.544163"/>
     <use style="fill:#1f77b4;stroke:#1f77b4;" x="209.378727" xlink:href="#m573691393f" y="462.201203"/>
     <use style="fill:#1f77b4;stroke:#1f77b4;" x="218.932364" xlink:href="#m573691393f" y="454.055163"/>
     <use style="fill:#1f77b4;stroke:#1f77b4;" x="228.486" xlink:href="#m573691393f" y="444.345549"/>
     <use style="fill:#1f77b4;stroke:#1f77b4;" x="238.039636" xlink:href="#m573691393f" y="433.27852"/>
     <use style="fill:#1f77b4;stroke:#1f77b4;" x="247.593273" xlink:href="#m573691393f" y="421.0345"/>
     <use style="fill:#1f77b4;stroke:#1f77b4;" x="257.146909" xlink:href="#m573691393f" y="407.773783"/>
     <use style="fill:#1f77b4;stroke:#1f77b4;" x="266.700545" xlink:href="#m573691393f" y="393.640779"/>
     <use style="fill:#1f77b4;stroke:#1f77b4;" x="276.254182" xlink:href="#m573691393f" y="378.767288"/>
     <use style="fill:#1f77b4;stroke:#1f77b4;" x="285.807818" xlink:href="#m573691393f" y="363.275108"/>
     <use style="fill:#1f77b4;stroke:#1f77b4;" x="295.361455" xlink:href="#m573691393f" y="347.278144"/>
     <use style="fill:#1f77b4;stroke:#1f77b4;" x="304.915091" xlink:href="#m573691393f" y="330.884154"/>
     <use style="fill:#1f77b4;stroke:#1f77b4;" x="314.468727" xlink:href="#m573691393f" y="314.196249"/>
     <use style="fill:#1f77b4;stroke:#1f77b4;" x="324.022364" xlink:href="#m573691393f" y="297.314196"/>
     <use style="fill:#1f77b4;stroke:#1f77b4;" x="333.576" xlink:href="#m573691393f" y="280.3356"/>
     <use style="fill:#1f77b4;stroke:#1f77b4;" x="343.129636" xlink:href="#m573691393f" y="263.357004"/>
     <use style="fill:#1f77b4;stroke:#1f77b4;" x="352.683273" xlink:href="#m573691393f" y="246.474951"/>
     <use style="fill:#1f77b4;stroke:#1f77b4;" x="362.236909" xlink:href="#m573691393f" y="229.787046"/>
     <use style="fill:#1f77b4;stroke:#1f77b4;" x="371.790545" xlink:href="#m573691393f" y="213.393056"/>
     <use style="fill:#1f77b4;stroke:#1f77b4;" x="381.344182" xlink:href="#m573691393f" y="197.396092"/>
     <use style="fill:#1f77b4;stroke:#1f77b4;" x="390.897818" xlink:href="#m573691393f" y="181.903912"/>
     <use style="fill:#1f77b4;stroke:#1f77b4;" x="400.451455" xlink:href="#m573691393f" y="167.030421"/>
     <use style="fill:#1f77b4;stroke:#1f77b4;" x="410.005091" xlink:href="#m573691393f" y="152.897417"/>
     <use style="fill:#1f77b4;stroke:#1f77b4;" x="419.558727" xlink:href="#m573691393f" y="139.6367"/>
     <use style="fill:#1f77b4;stroke:#1f77b4;" x="429.112364" xlink:href="#m573691393f" y="127.39268"/>
     <use style="fill:#1f77b4;stroke:#1f77b4;" x="438.666" xlink:href="#m573691393f" y="116.325651"/>
     <use style="fill:#1f77b4;stroke:#1f77b4;" x="448.219636" xlink:href="#m573691393f" y="106.616037"/>
     <use style="fill:#1f77b4;stroke:#1f77b4;" x="457.773273" xlink:href="#m573691393f" y="98.469997"/>
     <use style="fill:#1f77b4;stroke:#1f77b4;" x="467.326909" xlink:href="#m573691393f" y="92.127037"/>
     <use style="fill:#1f77b4;stroke:#1f77b4;" x="476.880545" xlink:href="#m573691393f" y="87.870639"/>
     <use style="fill:#1f77b4;stroke:#1f77b4;" x="486.434182" xlink:href="#m573691393f" y="86.0436"/>
     <use style="fill:#1f77b4;stroke:#1f77b4;" x="495.987818" xlink:href="#m573691393f" y="87.071042"/>
     <use style="fill:#1f77b4;stroke:#1f77b4;" x="505.541455" xlink:href="#m573691393f" y="91.496558"/>
     <use style="fill:#1f77b4;stroke:#1f77b4;" x="515.095091" xlink:href="#m573691393f" y="100.042449"/>
     <use style="fill:#1f77b4;stroke:#1f77b4;" x="524.648727" xlink:href="#m573691393f" y="113.717973"/>
     <use style="fill:#1f77b4;stroke:#1f77b4;" x="534.202364" xlink:href="#m573691393f" y="134.035055"/>
     <use style="fill:#1f77b4;stroke:#1f77b4;" x="543.756" xlink:href="#m573691393f" y="163.508148"/>
     <use style="fill:#1f77b4;stroke:#1f77b4;" x="553.309636" xlink:href="#m573691393f" y="207.140548"/>
     <use style="fill:#1f77b4;stroke:#1f77b4;" x="562.863273" xlink:href="#m573691393f" y="280.3356"/>
    </g>
   </g>
   <g id="patch_3">
    <path d="M 81.36 494.0568 
L 81.36 66.6144 
" style="fill:none;stroke:#000000;stroke-linecap:square;stroke-linejoin:miter;stroke-width:0.8;"/>
   </g>
   <g id="patch_4">
    <path d="M 585.792 494.0568 
L 585.792 66.6144 
" style="fill:none;stroke:#000000;stroke-linecap:square;stroke-linejoin:miter;stroke-width:0.8;"/>
   </g>
   <g id="patch_5">
    <path d="M 81.36 494.0568 
L 585.792 494.0568 
" style="fill:none;stroke:#000000;stroke-linecap:square;stroke-linejoin:miter;stroke-width:0.8;"/>
   </g>
   <g id="patch_6">
    <path d="M 81.36 66.6144 
L 585.792 66.6144 
" style="fill:none;stroke:#000000;stroke-linecap:square;stroke-linejoin:miter;stroke-width:0.8;"/>
   </g>
  </g>
 </g>
 <defs>
  <clipPath id="pb69238d1cd">
   <rect height="427.4424" width="504.432" x="81.36" y="66.6144"/>
  </clipPath>
 </defs>
</svg>
